<mxfile host="Electron" modified="2024-11-28T07:35:38.842Z" agent="Mozilla/5.0 (Windows NT 10.0; Win64; x64) AppleWebKit/537.36 (KHTML, like Gecko) draw.io/22.0.3 Chrome/114.0.5735.289 Electron/25.8.4 Safari/537.36" etag="XrmYFLrjzAz7LVfp3oXG" version="22.0.3" type="device">
  <diagram name="Seite-1" id="1wJZYg-sN28dwmO0yLAL">
    <mxGraphModel dx="1098" dy="820" grid="1" gridSize="10" guides="1" tooltips="1" connect="1" arrows="1" fold="1" page="1" pageScale="1" pageWidth="827" pageHeight="1169" math="0" shadow="0">
      <root>
        <mxCell id="0" />
        <mxCell id="1" parent="0" />
        <mxCell id="fy48gWIyvFch9U87aRME-1" value="&lt;h3&gt;&lt;br&gt;&lt;/h3&gt;" style="rounded=0;whiteSpace=wrap;html=1;strokeWidth=2;" parent="1" vertex="1">
          <mxGeometry x="19" y="50" width="790" height="440" as="geometry" />
        </mxCell>
        <mxCell id="fy48gWIyvFch9U87aRME-2" value="" style="rounded=0;whiteSpace=wrap;html=1;strokeWidth=2;" parent="1" vertex="1">
          <mxGeometry x="19" y="50" width="130" height="440" as="geometry" />
        </mxCell>
        <mxCell id="fy48gWIyvFch9U87aRME-4" value="&lt;h2&gt;Menü mit mehreren Auswahlen&lt;/h2&gt;" style="text;html=1;strokeColor=none;fillColor=none;align=left;verticalAlign=middle;whiteSpace=wrap;rounded=0;" parent="1" vertex="1">
          <mxGeometry x="29" y="70" width="110" height="50" as="geometry" />
        </mxCell>
        <mxCell id="fy48gWIyvFch9U87aRME-5" value="&lt;h3&gt;Dashboard&lt;/h3&gt;" style="rounded=0;whiteSpace=wrap;html=1;strokeWidth=2;fillColor=#f5f5f5;fontColor=#333333;strokeColor=#666666;" parent="1" vertex="1">
          <mxGeometry x="24" y="140" width="120" height="40" as="geometry" />
        </mxCell>
        <mxCell id="fy48gWIyvFch9U87aRME-6" value="&lt;h3&gt;Kunden&lt;/h3&gt;" style="rounded=0;whiteSpace=wrap;html=1;strokeWidth=2;" parent="1" vertex="1">
          <mxGeometry x="24" y="200" width="120" height="40" as="geometry" />
        </mxCell>
        <mxCell id="fy48gWIyvFch9U87aRME-7" value="&lt;h3&gt;Tickets&lt;/h3&gt;" style="rounded=0;whiteSpace=wrap;html=1;strokeWidth=2;" parent="1" vertex="1">
          <mxGeometry x="24" y="260" width="120" height="40" as="geometry" />
        </mxCell>
        <mxCell id="fy48gWIyvFch9U87aRME-9" value="&lt;h3&gt;Reservierungen&lt;/h3&gt;" style="rounded=0;whiteSpace=wrap;html=1;strokeWidth=2;fillColor=#f5f5f5;fontColor=#333333;strokeColor=#666666;" parent="1" vertex="1">
          <mxGeometry x="169" y="140" width="120" height="40" as="geometry" />
        </mxCell>
        <mxCell id="fy48gWIyvFch9U87aRME-10" value="&lt;h3&gt;Überschrift&lt;/h3&gt;" style="text;html=1;strokeColor=none;fillColor=none;align=center;verticalAlign=middle;whiteSpace=wrap;rounded=0;" parent="1" vertex="1">
          <mxGeometry x="179" y="90" width="60" height="30" as="geometry" />
        </mxCell>
        <mxCell id="fy48gWIyvFch9U87aRME-12" value="&lt;h3&gt;Anwesend&lt;/h3&gt;" style="rounded=0;whiteSpace=wrap;html=1;strokeWidth=2;" parent="1" vertex="1">
          <mxGeometry x="339" y="140" width="120" height="40" as="geometry" />
        </mxCell>
        <mxCell id="fy48gWIyvFch9U87aRME-13" value="&lt;h3&gt;Abwesend&lt;/h3&gt;" style="rounded=0;whiteSpace=wrap;html=1;strokeWidth=2;" parent="1" vertex="1">
          <mxGeometry x="499" y="140" width="120" height="40" as="geometry" />
        </mxCell>
        <mxCell id="fy48gWIyvFch9U87aRME-14" value="&lt;h3&gt;Gesamte Anzahl&lt;/h3&gt;" style="rounded=0;whiteSpace=wrap;html=1;strokeWidth=2;" parent="1" vertex="1">
          <mxGeometry x="659" y="140" width="120" height="40" as="geometry" />
        </mxCell>
        <mxCell id="fy48gWIyvFch9U87aRME-15" value="&lt;h2&gt;Dashboard&lt;/h2&gt;" style="text;html=1;strokeColor=none;fillColor=none;align=center;verticalAlign=middle;whiteSpace=wrap;rounded=0;" parent="1" vertex="1">
          <mxGeometry x="189" y="60" width="60" height="30" as="geometry" />
        </mxCell>
        <mxCell id="t8EQ7j6e2sp2qat_O15M-9" value="" style="rounded=0;whiteSpace=wrap;html=1;strokeWidth=2;" parent="1" vertex="1">
          <mxGeometry x="169" y="210" width="611" height="260" as="geometry" />
        </mxCell>
        <mxCell id="t8EQ7j6e2sp2qat_O15M-10" value="&lt;h3&gt;Reservierungen&lt;/h3&gt;" style="text;html=1;strokeColor=none;fillColor=none;align=center;verticalAlign=middle;whiteSpace=wrap;rounded=0;" parent="1" vertex="1">
          <mxGeometry x="209" y="210" width="50" height="30" as="geometry" />
        </mxCell>
        <mxCell id="t8EQ7j6e2sp2qat_O15M-15" value="&lt;h3&gt;&lt;br&gt;&lt;/h3&gt;" style="rounded=0;whiteSpace=wrap;html=1;strokeWidth=2;" parent="1" vertex="1">
          <mxGeometry x="19" y="570" width="790" height="440" as="geometry" />
        </mxCell>
        <mxCell id="t8EQ7j6e2sp2qat_O15M-16" value="" style="rounded=0;whiteSpace=wrap;html=1;strokeWidth=2;" parent="1" vertex="1">
          <mxGeometry x="19" y="570" width="130" height="440" as="geometry" />
        </mxCell>
        <mxCell id="t8EQ7j6e2sp2qat_O15M-17" value="&lt;h2&gt;Menü mit mehreren Auswahlen&lt;/h2&gt;" style="text;html=1;strokeColor=none;fillColor=none;align=left;verticalAlign=middle;whiteSpace=wrap;rounded=0;" parent="1" vertex="1">
          <mxGeometry x="29" y="590" width="110" height="50" as="geometry" />
        </mxCell>
        <mxCell id="t8EQ7j6e2sp2qat_O15M-18" value="&lt;h3&gt;Dashboard&lt;/h3&gt;" style="rounded=0;whiteSpace=wrap;html=1;strokeWidth=2;fillColor=#f5f5f5;fontColor=#333333;strokeColor=#666666;" parent="1" vertex="1">
          <mxGeometry x="24" y="660" width="120" height="40" as="geometry" />
        </mxCell>
        <mxCell id="t8EQ7j6e2sp2qat_O15M-19" value="&lt;h3&gt;Kunden&lt;/h3&gt;" style="rounded=0;whiteSpace=wrap;html=1;strokeWidth=2;" parent="1" vertex="1">
          <mxGeometry x="24" y="720" width="120" height="40" as="geometry" />
        </mxCell>
        <mxCell id="t8EQ7j6e2sp2qat_O15M-20" value="&lt;h3&gt;Tickets&lt;/h3&gt;" style="rounded=0;whiteSpace=wrap;html=1;strokeWidth=2;" parent="1" vertex="1">
          <mxGeometry x="24" y="780" width="120" height="40" as="geometry" />
        </mxCell>
        <mxCell id="t8EQ7j6e2sp2qat_O15M-22" value="&lt;h3&gt;Reservierungen&lt;/h3&gt;" style="rounded=0;whiteSpace=wrap;html=1;strokeWidth=2;" parent="1" vertex="1">
          <mxGeometry x="169" y="660" width="120" height="40" as="geometry" />
        </mxCell>
        <mxCell id="t8EQ7j6e2sp2qat_O15M-23" value="&lt;h3&gt;Überschrift&lt;/h3&gt;" style="text;html=1;strokeColor=none;fillColor=none;align=center;verticalAlign=middle;whiteSpace=wrap;rounded=0;" parent="1" vertex="1">
          <mxGeometry x="179" y="610" width="60" height="30" as="geometry" />
        </mxCell>
        <mxCell id="t8EQ7j6e2sp2qat_O15M-24" value="&lt;h3&gt;Anwesend&lt;/h3&gt;" style="rounded=0;whiteSpace=wrap;html=1;strokeWidth=2;fillColor=#f5f5f5;fontColor=#333333;strokeColor=#666666;" parent="1" vertex="1">
          <mxGeometry x="339" y="660" width="120" height="40" as="geometry" />
        </mxCell>
        <mxCell id="t8EQ7j6e2sp2qat_O15M-25" value="&lt;h3&gt;Abwesend&lt;/h3&gt;" style="rounded=0;whiteSpace=wrap;html=1;strokeWidth=2;fillColor=#f5f5f5;fontColor=#333333;strokeColor=#666666;" parent="1" vertex="1">
          <mxGeometry x="499" y="660" width="120" height="40" as="geometry" />
        </mxCell>
        <mxCell id="t8EQ7j6e2sp2qat_O15M-26" value="&lt;h3&gt;Gesamte Anzahl&lt;/h3&gt;" style="rounded=0;whiteSpace=wrap;html=1;strokeWidth=2;fillColor=#f5f5f5;fontColor=#333333;strokeColor=#666666;" parent="1" vertex="1">
          <mxGeometry x="659" y="660" width="120" height="40" as="geometry" />
        </mxCell>
        <mxCell id="t8EQ7j6e2sp2qat_O15M-27" value="&lt;h2&gt;Dashboard&lt;/h2&gt;" style="text;html=1;strokeColor=none;fillColor=none;align=center;verticalAlign=middle;whiteSpace=wrap;rounded=0;" parent="1" vertex="1">
          <mxGeometry x="189" y="580" width="60" height="30" as="geometry" />
        </mxCell>
        <mxCell id="t8EQ7j6e2sp2qat_O15M-29" value="&lt;h3&gt;Überschrift&lt;/h3&gt;" style="text;html=1;strokeColor=none;fillColor=none;align=center;verticalAlign=middle;whiteSpace=wrap;rounded=0;" parent="1" vertex="1">
          <mxGeometry x="184" y="730" width="50" height="30" as="geometry" />
        </mxCell>
        <mxCell id="t8EQ7j6e2sp2qat_O15M-34" value="&lt;h3&gt;Anzahl&lt;/h3&gt;" style="rounded=0;whiteSpace=wrap;html=1;strokeWidth=2;align=left;" parent="1" vertex="1">
          <mxGeometry x="174" y="770" width="306" height="30" as="geometry" />
        </mxCell>
        <mxCell id="t8EQ7j6e2sp2qat_O15M-36" value="" style="rounded=0;whiteSpace=wrap;html=1;strokeWidth=2;" parent="1" vertex="1">
          <mxGeometry x="174" y="820" width="620" height="170" as="geometry" />
        </mxCell>
        <mxCell id="t8EQ7j6e2sp2qat_O15M-37" value="&lt;h3&gt;Reservierungen&lt;/h3&gt;" style="text;html=1;strokeColor=none;fillColor=none;align=center;verticalAlign=middle;whiteSpace=wrap;rounded=0;" parent="1" vertex="1">
          <mxGeometry x="214" y="820" width="50" height="30" as="geometry" />
        </mxCell>
        <mxCell id="t8EQ7j6e2sp2qat_O15M-42" value="&lt;h2&gt;Dashboard Reservierung&lt;/h2&gt;" style="text;html=1;align=center;verticalAlign=middle;resizable=0;points=[];autosize=1;strokeColor=none;fillColor=none;" parent="1" vertex="1">
          <mxGeometry x="9" width="240" height="60" as="geometry" />
        </mxCell>
        <mxCell id="t8EQ7j6e2sp2qat_O15M-43" value="&lt;h2&gt;Dashboard Anwesend, Abwesend, Gesamte Anzahl&lt;/h2&gt;" style="text;html=1;align=center;verticalAlign=middle;resizable=0;points=[];autosize=1;strokeColor=none;fillColor=none;" parent="1" vertex="1">
          <mxGeometry x="9" y="520" width="460" height="60" as="geometry" />
        </mxCell>
        <mxCell id="BV7g9ZHKg8WR74kceGoT-1" value="&lt;h3&gt;Logout&lt;/h3&gt;" style="rounded=0;whiteSpace=wrap;html=1;strokeWidth=2;" parent="1" vertex="1">
          <mxGeometry x="24" y="440" width="120" height="40" as="geometry" />
        </mxCell>
        <mxCell id="BV7g9ZHKg8WR74kceGoT-2" value="&lt;h3&gt;Logout&lt;/h3&gt;" style="rounded=0;whiteSpace=wrap;html=1;strokeWidth=2;" parent="1" vertex="1">
          <mxGeometry x="24" y="960" width="120" height="40" as="geometry" />
        </mxCell>
        <mxCell id="vgsVoGRsDSKTkcsviWr_-1" value="&lt;h3&gt;Vorname&lt;/h3&gt;" style="text;html=1;strokeColor=none;fillColor=none;align=center;verticalAlign=middle;whiteSpace=wrap;rounded=0;" parent="1" vertex="1">
          <mxGeometry x="180" y="230" width="70" height="30" as="geometry" />
        </mxCell>
        <mxCell id="vgsVoGRsDSKTkcsviWr_-2" value="&lt;h3&gt;Nachname&lt;/h3&gt;" style="text;html=1;strokeColor=none;fillColor=none;align=center;verticalAlign=middle;whiteSpace=wrap;rounded=0;" parent="1" vertex="1">
          <mxGeometry x="305" y="230" width="70" height="30" as="geometry" />
        </mxCell>
        <mxCell id="vgsVoGRsDSKTkcsviWr_-3" value="&lt;h3&gt;Ticket&lt;/h3&gt;" style="text;html=1;strokeColor=none;fillColor=none;align=center;verticalAlign=middle;whiteSpace=wrap;rounded=0;" parent="1" vertex="1">
          <mxGeometry x="595" y="230" width="70" height="30" as="geometry" />
        </mxCell>
        <mxCell id="vgsVoGRsDSKTkcsviWr_-4" value="&lt;h3&gt;Rabatt&lt;/h3&gt;" style="text;html=1;strokeColor=none;fillColor=none;align=center;verticalAlign=middle;whiteSpace=wrap;rounded=0;" parent="1" vertex="1">
          <mxGeometry x="705" y="230" width="70" height="30" as="geometry" />
        </mxCell>
        <mxCell id="vgsVoGRsDSKTkcsviWr_-5" value="&lt;h3&gt;Status&lt;/h3&gt;" style="text;html=1;strokeColor=none;fillColor=none;align=center;verticalAlign=middle;whiteSpace=wrap;rounded=0;" parent="1" vertex="1">
          <mxGeometry x="425" y="230" width="60" height="30" as="geometry" />
        </mxCell>
        <mxCell id="vgsVoGRsDSKTkcsviWr_-9" value="&lt;h3&gt;Rabatt&lt;/h3&gt;" style="text;html=1;strokeColor=none;fillColor=none;align=center;verticalAlign=middle;whiteSpace=wrap;rounded=0;" parent="1" vertex="1">
          <mxGeometry x="705" y="840" width="70" height="30" as="geometry" />
        </mxCell>
        <mxCell id="vgsVoGRsDSKTkcsviWr_-11" value="&lt;h3&gt;Status&lt;/h3&gt;" style="text;html=1;strokeColor=none;fillColor=none;align=center;verticalAlign=middle;whiteSpace=wrap;rounded=0;" parent="1" vertex="1">
          <mxGeometry x="429" y="840" width="60" height="30" as="geometry" />
        </mxCell>
        <mxCell id="vgsVoGRsDSKTkcsviWr_-12" value="&lt;h3&gt;Vorname&lt;/h3&gt;" style="text;html=1;strokeColor=none;fillColor=none;align=center;verticalAlign=middle;whiteSpace=wrap;rounded=0;" parent="1" vertex="1">
          <mxGeometry x="184" y="840" width="70" height="30" as="geometry" />
        </mxCell>
        <mxCell id="vgsVoGRsDSKTkcsviWr_-13" value="&lt;h3&gt;Nachname&lt;/h3&gt;" style="text;html=1;strokeColor=none;fillColor=none;align=center;verticalAlign=middle;whiteSpace=wrap;rounded=0;" parent="1" vertex="1">
          <mxGeometry x="309" y="840" width="70" height="30" as="geometry" />
        </mxCell>
        <mxCell id="vgsVoGRsDSKTkcsviWr_-14" value="&lt;h3&gt;Ticket&lt;/h3&gt;" style="text;html=1;strokeColor=none;fillColor=none;align=center;verticalAlign=middle;whiteSpace=wrap;rounded=0;" parent="1" vertex="1">
          <mxGeometry x="599" y="840" width="70" height="30" as="geometry" />
        </mxCell>
      </root>
    </mxGraphModel>
  </diagram>
</mxfile>
